Coordinates
version=1
nRows=9
nColumns=36
inDegrees=yes

Units are S.I. units (second, meters, Newtons, ...)
If the header above contains a line with 'inDegrees', this indicates whether rotational values are in degrees (yes) or radians (no).

endheader
time	pelvis_tilt	pelvis_list	pelvis_rotation	pelvis_tx	pelvis_ty	pelvis_tz	hip_flexion_r	hip_adduction_r	hip_rotation_r	knee_angle_r	knee_angle_r_beta	ankle_angle_r	subtalar_angle_r	mtp_angle_r	hip_flexion_l	hip_adduction_l	hip_rotation_l	knee_angle_l	knee_angle_l_beta	ankle_angle_l	subtalar_angle_l	mtp_angle_l	lumbar_extension	lumbar_bending	lumbar_rotation	arm_flex_r	arm_add_r	arm_rot_r	elbow_flex_r	pro_sup_r	arm_flex_l	arm_add_l	arm_rot_l	elbow_flex_l	pro_sup_l
      1.21666670	      0.84678795	     -1.39978202	     15.00124551	     -0.00708346	      1.19889975	      0.05484484	      3.33582666	     -1.75953318	      2.11439802	     14.68015699	      0.25621707	     17.76741836	     -6.98015663	     -7.49997416	      7.38474689	      1.82553537	     -3.94316633	     20.75922801	      0.36231688	      8.12191218	    -24.02157609	     -7.49997416	     -4.44334279	      1.34930244	      4.06838143	     -2.74503611	     -2.63487452	     -9.61447516	     30.89717616	     93.61779523	      3.49908363	     -1.07471451	     -9.00827549	     23.85927805	     85.82489448
      1.23333330	      0.40605118	     -1.60122779	     15.05783244	     -0.00698262	      1.19590950	      0.05456064	      3.74159133	     -1.66104509	      2.25621178	     14.71808184	      0.25687899	     18.15336691	     -7.00033776	     -7.49997681	      8.02227383	      1.74134977	     -3.63914756	     21.46337458	      0.37460655	      8.39875074	    -24.84789968	     -7.49997681	     -3.88025874	      1.41609755	      3.71978460	     -3.31010376	     -2.78638802	     -9.18751131	     30.96510958	     92.94745485	      2.99065097	     -1.16505782	     -9.25934914	     24.13146408	     85.74333877
      1.25000000	      0.29004551	     -1.61395045	     15.11613793	      0.00064176	      1.19943021	      0.05149358	      3.40895528	     -1.66643976	      2.48426984	     14.36619695	      0.25073744	     18.47605789	     -6.99303762	     -7.49997694	      8.06522119	      1.69437043	     -3.52936233	     21.82264018	      0.38087692	      8.59826647	    -25.02391966	     -7.49997694	     -3.64649566	      1.34119145	      3.54001584	     -3.82275566	     -2.88390907	     -9.22137775	     30.94947970	     92.95731190	      2.56817571	     -1.19778660	     -9.29701357	     24.06568742	     85.79684173
      1.26666670	     -0.13450099	     -1.82526623	     15.24540589	      0.00091595	      1.19852490	      0.05078782	      3.45560790	     -1.57815084	      2.47695174	     14.03850782	      0.24501818	     18.80412389	     -6.87735446	     -7.49997827	      8.58002655	      1.58992833	     -3.12440873	     22.29164025	      0.38906252	      8.76369283	    -25.55057599	     -7.49997827	     -3.08770632	      1.42816129	      3.06876953	     -4.63868467	     -2.99887413	     -9.24141455	     31.45645315	     92.13652271	      1.91552168	     -1.20840724	     -9.44405907	     24.28528547	     85.14445429
      1.28333330	     -0.26093352	     -1.97953822	     15.21937798	      0.00852657	      1.19874777	      0.04788825	      3.13873328	     -1.45985653	      2.50733477	     13.77222771	      0.24037072	     19.08645354	     -6.54324111	     -7.49997974	      8.58311275	      1.40124869	     -3.07308436	     22.67031394	      0.39567162	      9.07337779	    -25.48154305	     -7.49997974	     -2.70673037	      1.50898938	      2.85591673	     -5.43492211	     -3.16713342	     -9.39425920	     31.80639039	     92.43908981	      1.26046107	     -1.16150292	     -9.89546240	     23.94064010	     85.94476452
      1.30000000	     -0.46288845	     -2.03523166	     15.16922185	      0.00886462	      1.19758006	      0.04724757	      3.15724455	     -1.49271575	      2.55422721	     14.10525422	      0.24618313	     19.28402445	     -6.64559628	     -7.49998414	      8.62469553	      1.40677214	     -2.94343718	     22.90142912	      0.39970534	      9.37958974	    -25.66485440	     -7.49998414	     -2.36029407	      1.46883515	      2.78537882	     -6.01610007	     -3.31262360	     -9.41058064	     31.76052461	     92.93756678	      0.82880358	     -1.15611356	     -9.97832898	     23.23127765	     87.64274129
      1.31666670	     -0.50493653	     -2.01903085	     15.33597223	      0.01631220	      1.19488128	      0.04467063	      2.87262068	     -1.50599866	      2.60822897	     14.46385995	      0.25244198	     19.37523025	     -6.80918129	     -7.49998420	      8.33211732	      1.38778609	     -3.03951919	     23.04407665	      0.40219501	      9.72441071	    -25.88971933	     -7.49998420	     -2.27728740	      1.33868878	      2.61991830	     -6.57986224	     -3.41009471	     -9.45874437	     31.64481247	     92.91847723	      0.36510576	     -1.12256664	     -9.99692952	     22.98746668	     87.64535097
      1.33333330	     -0.82046325	     -2.00316963	     15.42455110	      0.02384766	      1.19442982	      0.04831907	      3.15964685	     -1.53994378	      2.79061919	     15.31960503	      0.26737755	     19.58836616	     -7.47149780	     -7.49998450	      8.43199295	      1.38417416	     -3.10775922	     23.28982528	      0.40648413	      9.91608048	    -26.21772418	     -7.49998450	     -1.87744372	      1.05228762	      2.62441720	     -7.38151570	     -3.28859075	     -9.58097333	     31.75046061	     92.91522610	     -0.14699725	     -1.26467882	    -10.13994440	     22.01598336	     87.71142958
      1.35000000	     -1.09566543	     -1.98596612	     15.43663597	      0.02431524	      1.19397394	      0.04868842	      3.67049895	     -1.49501345	      3.07272112	     16.56771794	      0.28916123	     19.81853657	     -8.29403806	     -7.49998626	      8.55435732	      1.39096413	     -3.03314446	     23.74517343	      0.41443146	     10.05360571	    -26.19726504	     -7.49998626	     -1.37991805	      0.78168543	      2.97906783	     -8.17780710	     -3.13015032	     -9.85169484	     31.69964410	     92.20821320	      0.03844133	     -1.46106763	     -9.59857616	     20.53066301	     87.37992860
